<mxfile host="65bd71144e">
    <diagram id="ATcD8fEoeCDQF7GTzRI-" name="Page-1">
        <mxGraphModel dx="469" dy="224" grid="1" gridSize="10" guides="1" tooltips="1" connect="1" arrows="1" fold="1" page="1" pageScale="1" pageWidth="827" pageHeight="1169" math="0" shadow="0">
            <root>
                <mxCell id="0"/>
                <mxCell id="1" parent="0"/>
                <mxCell id="6Gnv4JtEsD5WOK-UEyXu-5" style="edgeStyle=orthogonalEdgeStyle;orthogonalLoop=1;jettySize=auto;html=1;entryX=0.5;entryY=0;entryDx=0;entryDy=0;" parent="1" source="6Gnv4JtEsD5WOK-UEyXu-1" target="6Gnv4JtEsD5WOK-UEyXu-2" edge="1">
                    <mxGeometry relative="1" as="geometry">
                        <mxPoint x="290" y="117" as="targetPoint"/>
                    </mxGeometry>
                </mxCell>
                <mxCell id="6Gnv4JtEsD5WOK-UEyXu-6" style="edgeStyle=orthogonalEdgeStyle;orthogonalLoop=1;jettySize=auto;html=1;entryX=0.5;entryY=0;entryDx=0;entryDy=0;" parent="1" source="6Gnv4JtEsD5WOK-UEyXu-1" target="6Gnv4JtEsD5WOK-UEyXu-3" edge="1">
                    <mxGeometry relative="1" as="geometry"/>
                </mxCell>
                <mxCell id="6Gnv4JtEsD5WOK-UEyXu-32" style="edgeStyle=orthogonalEdgeStyle;orthogonalLoop=1;jettySize=auto;html=1;exitX=0.75;exitY=1;exitDx=0;exitDy=0;entryX=0;entryY=0.5;entryDx=0;entryDy=0;fillColor=#008a00;strokeColor=#005700;" parent="1" source="6Gnv4JtEsD5WOK-UEyXu-1" target="6Gnv4JtEsD5WOK-UEyXu-3" edge="1">
                    <mxGeometry relative="1" as="geometry"/>
                </mxCell>
                <mxCell id="6Gnv4JtEsD5WOK-UEyXu-1" value="APP" style="whiteSpace=wrap;html=1;rounded=1;" parent="1" vertex="1">
                    <mxGeometry x="354" y="30" width="120" height="60" as="geometry"/>
                </mxCell>
                <mxCell id="6Gnv4JtEsD5WOK-UEyXu-16" style="edgeStyle=orthogonalEdgeStyle;orthogonalLoop=1;jettySize=auto;html=1;entryX=0.5;entryY=0;entryDx=0;entryDy=0;" parent="1" source="6Gnv4JtEsD5WOK-UEyXu-2" edge="1">
                    <mxGeometry relative="1" as="geometry">
                        <mxPoint x="290" y="210" as="targetPoint"/>
                    </mxGeometry>
                </mxCell>
                <mxCell id="6Gnv4JtEsD5WOK-UEyXu-31" style="edgeStyle=orthogonalEdgeStyle;orthogonalLoop=1;jettySize=auto;html=1;entryX=0.25;entryY=1;entryDx=0;entryDy=0;fillColor=#a20025;strokeColor=#FFFF99;" parent="1" source="6Gnv4JtEsD5WOK-UEyXu-2" target="6Gnv4JtEsD5WOK-UEyXu-1" edge="1">
                    <mxGeometry relative="1" as="geometry"/>
                </mxCell>
                <mxCell id="6Gnv4JtEsD5WOK-UEyXu-2" value="HEADER" style="whiteSpace=wrap;html=1;rounded=1;" parent="1" vertex="1">
                    <mxGeometry x="230" y="120" width="120" height="60" as="geometry"/>
                </mxCell>
                <mxCell id="6Gnv4JtEsD5WOK-UEyXu-42" value="" style="edgeStyle=orthogonalEdgeStyle;orthogonalLoop=1;jettySize=auto;html=1;" parent="1" source="6Gnv4JtEsD5WOK-UEyXu-3" target="6Gnv4JtEsD5WOK-UEyXu-40" edge="1">
                    <mxGeometry relative="1" as="geometry"/>
                </mxCell>
                <mxCell id="6Gnv4JtEsD5WOK-UEyXu-45" style="edgeStyle=orthogonalEdgeStyle;orthogonalLoop=1;jettySize=auto;html=1;exitX=0;exitY=0.75;exitDx=0;exitDy=0;entryX=0;entryY=0.5;entryDx=0;entryDy=0;fillColor=#008a00;strokeColor=#005700;" parent="1" source="6Gnv4JtEsD5WOK-UEyXu-3" target="6Gnv4JtEsD5WOK-UEyXu-40" edge="1">
                    <mxGeometry relative="1" as="geometry"/>
                </mxCell>
                <mxCell id="6Gnv4JtEsD5WOK-UEyXu-3" value="MAIN" style="whiteSpace=wrap;html=1;rounded=1;" parent="1" vertex="1">
                    <mxGeometry x="500" y="120" width="120" height="60" as="geometry"/>
                </mxCell>
                <mxCell id="6Gnv4JtEsD5WOK-UEyXu-13" style="edgeStyle=orthogonalEdgeStyle;orthogonalLoop=1;jettySize=auto;html=1;exitX=1;exitY=0.5;exitDx=0;exitDy=0;entryX=0.5;entryY=0;entryDx=0;entryDy=0;" parent="1" source="6Gnv4JtEsD5WOK-UEyXu-7" target="6Gnv4JtEsD5WOK-UEyXu-11" edge="1">
                    <mxGeometry relative="1" as="geometry"/>
                </mxCell>
                <mxCell id="6Gnv4JtEsD5WOK-UEyXu-30" style="edgeStyle=orthogonalEdgeStyle;orthogonalLoop=1;jettySize=auto;html=1;entryX=1;entryY=0.5;entryDx=0;entryDy=0;fillColor=#a20025;strokeColor=#FFFF99;" parent="1" source="6Gnv4JtEsD5WOK-UEyXu-7" target="6Gnv4JtEsD5WOK-UEyXu-2" edge="1">
                    <mxGeometry relative="1" as="geometry">
                        <Array as="points">
                            <mxPoint x="370" y="220"/>
                            <mxPoint x="370" y="150"/>
                        </Array>
                    </mxGeometry>
                </mxCell>
                <mxCell id="6Gnv4JtEsD5WOK-UEyXu-7" value="SEARCH" style="whiteSpace=wrap;html=1;rounded=1;" parent="1" vertex="1">
                    <mxGeometry x="230" y="210" width="120" height="60" as="geometry"/>
                </mxCell>
                <mxCell id="6Gnv4JtEsD5WOK-UEyXu-25" style="edgeStyle=orthogonalEdgeStyle;orthogonalLoop=1;jettySize=auto;html=1;exitX=0.5;exitY=1;exitDx=0;exitDy=0;entryX=0.5;entryY=0;entryDx=0;entryDy=0;" parent="1" source="6Gnv4JtEsD5WOK-UEyXu-11" target="6Gnv4JtEsD5WOK-UEyXu-17" edge="1">
                    <mxGeometry relative="1" as="geometry"/>
                </mxCell>
                <mxCell id="3" value="" style="edgeStyle=orthogonalEdgeStyle;rounded=0;orthogonalLoop=1;jettySize=auto;html=1;" edge="1" parent="1" source="6Gnv4JtEsD5WOK-UEyXu-11" target="2">
                    <mxGeometry relative="1" as="geometry"/>
                </mxCell>
                <mxCell id="6Gnv4JtEsD5WOK-UEyXu-11" value="TEXT" style="whiteSpace=wrap;html=1;rounded=1;" parent="1" vertex="1">
                    <mxGeometry x="344" y="290" width="70" height="30" as="geometry"/>
                </mxCell>
                <mxCell id="6Gnv4JtEsD5WOK-UEyXu-26" style="edgeStyle=orthogonalEdgeStyle;orthogonalLoop=1;jettySize=auto;html=1;exitX=0.5;exitY=1;exitDx=0;exitDy=0;entryX=0.5;entryY=0;entryDx=0;entryDy=0;" parent="1" source="6Gnv4JtEsD5WOK-UEyXu-17" target="6Gnv4JtEsD5WOK-UEyXu-22" edge="1">
                    <mxGeometry relative="1" as="geometry"/>
                </mxCell>
                <mxCell id="6Gnv4JtEsD5WOK-UEyXu-17" value="&lt;font style=&quot;font-size: 8px&quot;&gt;press &quot;OK&quot;&lt;/font&gt;" style="whiteSpace=wrap;html=1;rounded=1;" parent="1" vertex="1">
                    <mxGeometry x="358.5" y="340" width="41.5" height="20" as="geometry"/>
                </mxCell>
                <mxCell id="6Gnv4JtEsD5WOK-UEyXu-21" value="" style="html=1;dashed=0;whitespace=wrap;points=[[0.005,0.63,0],[0.1,0.2,0],[0.9,0.2,0],[0.5,0,0],[0.995,0.63,0],[0.72,0.99,0],[0.5,1,0],[0.28,0.99,0]];shape=mxgraph.kubernetes.icon;prIcon=api;rounded=1;" parent="1" vertex="1">
                    <mxGeometry x="310" y="385" width="34" height="20" as="geometry"/>
                </mxCell>
                <mxCell id="6Gnv4JtEsD5WOK-UEyXu-28" value="" style="edgeStyle=orthogonalEdgeStyle;orthogonalLoop=1;jettySize=auto;html=1;" parent="1" source="6Gnv4JtEsD5WOK-UEyXu-22" target="6Gnv4JtEsD5WOK-UEyXu-27" edge="1">
                    <mxGeometry relative="1" as="geometry"/>
                </mxCell>
                <mxCell id="6Gnv4JtEsD5WOK-UEyXu-22" value="&lt;font style=&quot;font-size: 8px&quot;&gt;call API con il testo cercato&amp;nbsp;&lt;/font&gt;" style="whiteSpace=wrap;html=1;rounded=1;" parent="1" vertex="1">
                    <mxGeometry x="347" y="380" width="64" height="30" as="geometry"/>
                </mxCell>
                <mxCell id="6Gnv4JtEsD5WOK-UEyXu-29" style="edgeStyle=orthogonalEdgeStyle;orthogonalLoop=1;jettySize=auto;html=1;entryX=1.008;entryY=0.379;entryDx=0;entryDy=0;entryPerimeter=0;fillColor=#a20025;strokeColor=#FFFF99;" parent="1" source="6Gnv4JtEsD5WOK-UEyXu-27" target="6Gnv4JtEsD5WOK-UEyXu-7" edge="1">
                    <mxGeometry relative="1" as="geometry">
                        <Array as="points">
                            <mxPoint x="440" y="460"/>
                            <mxPoint x="440" y="233"/>
                        </Array>
                    </mxGeometry>
                </mxCell>
                <mxCell id="6Gnv4JtEsD5WOK-UEyXu-27" value="&lt;font style=&quot;font-size: 9px&quot;&gt;crea un array di ogetti con il risultato ottenuto&lt;/font&gt;" style="whiteSpace=wrap;html=1;rounded=1;strokeColor=#82b366;fillColor=#d5e8d4;fontColor=#000000;" parent="1" vertex="1">
                    <mxGeometry x="335" y="440" width="88" height="40" as="geometry"/>
                </mxCell>
                <mxCell id="6Gnv4JtEsD5WOK-UEyXu-33" value="card" style="whiteSpace=wrap;html=1;rounded=1;fillColor=#d5e8d4;strokeColor=#82b366;fontColor=#000000;" parent="1" vertex="1">
                    <mxGeometry x="675" y="300" width="40" height="30" as="geometry"/>
                </mxCell>
                <mxCell id="6Gnv4JtEsD5WOK-UEyXu-44" style="edgeStyle=orthogonalEdgeStyle;orthogonalLoop=1;jettySize=auto;html=1;entryX=0.5;entryY=-0.11;entryDx=0;entryDy=0;entryPerimeter=0;" parent="1" source="6Gnv4JtEsD5WOK-UEyXu-37" target="6Gnv4JtEsD5WOK-UEyXu-33" edge="1">
                    <mxGeometry relative="1" as="geometry"/>
                </mxCell>
                <mxCell id="6Gnv4JtEsD5WOK-UEyXu-37" value="&lt;font size=&quot;1&quot;&gt;prendi l'array inviato dal risultato di search&lt;br&gt;e cicla per stampare le card&lt;br&gt;&lt;/font&gt;" style="whiteSpace=wrap;html=1;rounded=1;" parent="1" vertex="1">
                    <mxGeometry x="640" y="200" width="110" height="60" as="geometry"/>
                </mxCell>
                <mxCell id="6Gnv4JtEsD5WOK-UEyXu-43" style="edgeStyle=orthogonalEdgeStyle;orthogonalLoop=1;jettySize=auto;html=1;exitX=1;exitY=0.5;exitDx=0;exitDy=0;entryX=0;entryY=0.421;entryDx=0;entryDy=0;entryPerimeter=0;" parent="1" source="6Gnv4JtEsD5WOK-UEyXu-40" target="6Gnv4JtEsD5WOK-UEyXu-37" edge="1">
                    <mxGeometry relative="1" as="geometry"/>
                </mxCell>
                <mxCell id="6Gnv4JtEsD5WOK-UEyXu-46" style="edgeStyle=orthogonalEdgeStyle;orthogonalLoop=1;jettySize=auto;html=1;exitX=1;exitY=0.75;exitDx=0;exitDy=0;entryX=0;entryY=0.5;entryDx=0;entryDy=0;fillColor=#008a00;strokeColor=#005700;" parent="1" source="6Gnv4JtEsD5WOK-UEyXu-40" target="6Gnv4JtEsD5WOK-UEyXu-33" edge="1">
                    <mxGeometry relative="1" as="geometry">
                        <Array as="points">
                            <mxPoint x="630" y="232"/>
                            <mxPoint x="630" y="315"/>
                        </Array>
                    </mxGeometry>
                </mxCell>
                <mxCell id="6Gnv4JtEsD5WOK-UEyXu-40" value="LIST CARD" style="whiteSpace=wrap;html=1;rounded=1;" parent="1" vertex="1">
                    <mxGeometry x="505" y="210" width="110" height="30" as="geometry"/>
                </mxCell>
                <mxCell id="2" value="userSearch" style="whiteSpace=wrap;html=1;rounded=1;" vertex="1" parent="1">
                    <mxGeometry x="474" y="291.25" width="66" height="27.5" as="geometry"/>
                </mxCell>
            </root>
        </mxGraphModel>
    </diagram>
</mxfile>